<svg xmlns="http://www.w3.org/2000/svg" height="48" viewBox="0 96 960 960" width="48" fill="#ffffff"><path d="M480 976q-75 0-140.5-28T225 871q-49-49-77-114.5T120 616q0-13 8.5-21.5T150 586q13 0 21.5 8.5T180 616q0 125 87.5 212.5T480 916q125 0 212.5-87.5T780 616q0-125-85-212.5T485 316h-22l52 52q9 9 9 21t-9 21q-9 9-21 9t-21-9L368 305q-9-9-9-21t9-21l106-106q8-8 20.5-8t20.5 8q8 8 8 20.5t-8 20.5l-58 58h23q75 0 140.5 28T735 361q49 49 77 114.5T840 616q0 75-28 140.5T735 871q-49 49-114.5 77T480 976Z"/></svg>